<?xml version="1.0" encoding="UTF-8"?><svg id="b" xmlns="http://www.w3.org/2000/svg" width="1334.78" height="576" viewBox="0 0 1334.78 576"><g id="c"><path d="M447.82,513.71l8.24,8.25c-48.64,35.1-106.89,54.04-168.06,54.04-76.93,0-149.25-29.96-203.65-84.35C29.96,437.25,0,364.93,0,288S29.96,138.75,84.35,84.35C138.75,29.96,211.07,0,288,0c61.17,0,119.42,18.94,168.06,54.04l-8.24,8.25-37.89,37.88c-35.11-22.87-76.99-36.17-121.93-36.17-123.51,0-224,100.49-224,224s100.49,224,224,224c44.94,0,86.82-13.3,121.93-36.17l37.89,37.88Z" fill="#8d9fa2"/><path d="M448,288c0,77.26-55.06,141.92-128,156.78v-66.27c27.24-9.66,48.85-31.27,58.51-58.51h-181.02c9.66,27.24,31.27,48.85,58.51,58.51v66.27c-72.94-14.86-128-79.52-128-156.78s55.06-141.92,128-156.78v66.27c-27.24,9.66-48.85,31.27-58.51,58.51h181.02c-9.66-27.24-31.27-48.85-58.51-58.51v-66.27c72.94,14.86,128,79.52,128,156.78Z" fill="#8d9fa2"/><path d="M576,288c0,58.52-17.34,114.38-49.59,161.71h-83.56c5.36-5.13,10.46-10.53,15.3-16.17,33.56-39.17,53.85-90.03,53.85-145.54s-20.29-106.37-53.85-145.54c-4.84-5.64-9.94-11.04-15.3-16.17h83.56c32.25,47.33,49.59,103.19,49.59,161.71Z" fill="#8d9fa2"/><path d="M723.97,122.21v91.91h-12.29v-42.11h-49.28v42.11h-12.29v-91.91h12.29v39.04h49.28v-39.04h12.29Z" fill="#38373e"/><path d="M790.4,214.12h-11.52v-9.22c-3.84,5.63-10.37,10.62-19.84,10.62-14.34,0-22.4-9.86-22.4-24.07v-44.29h11.52v41.86c0,9.47,4.1,15.87,13.95,15.87,8.32,0,16.77-6.27,16.77-17.41v-40.32h11.52v66.95Z" fill="#38373e"/><path d="M814.59,214.12h-11.52v-66.95h11.52v9.09c3.58-5.5,9.98-10.37,19.33-10.37s15.23,4.48,18.56,11.39c3.71-5.5,10.88-11.39,21.38-11.39,13.83,0,22.15,9.86,22.15,24.06v44.16h-11.52v-41.09c0-9.34-3.84-16.38-13.31-16.38-7.68,0-15.87,6.53-15.87,17.41v40.07h-11.52v-41.09c0-9.34-3.84-16.38-13.31-16.38-7.68,0-15.87,6.53-15.87,17.41v40.07Z" fill="#38373e"/><path d="M902.91,196.07c0-13.31,10.37-18.82,25.34-21.89l16.26-3.33v-2.82c0-7.68-4.22-12.03-13.18-12.03-8.45,0-13.44,3.97-15.49,11.39l-10.88-2.82c3.2-10.88,13.06-18.69,26.75-18.69,14.98,0,24.19,7.3,24.19,21.63v32.64c0,4.35,2.69,5.76,7.17,4.74v9.22c-10.24,1.28-16.13-1.15-17.54-7.55-4.1,5.25-11.52,8.7-20.61,8.7-12.16,0-22.02-7.17-22.02-19.2ZM944.51,179.82l-13.06,2.82c-10.24,2.05-17.15,4.86-17.15,12.93,0,6.53,4.74,10.37,12.03,10.37,9.86,0,18.18-6.02,18.18-14.59v-11.52Z" fill="#38373e"/><path d="M969.08,147.17h11.52v9.09c3.84-5.5,10.5-10.37,19.97-10.37,14.21,0,22.27,9.86,22.27,24.06v44.16h-11.52v-41.09c0-9.34-3.97-16.38-13.95-16.38-8.32,0-16.77,6.4-16.77,17.54v39.94h-11.52v-66.95Z" fill="#38373e"/><path d="M686.08,320.65c11.91,0,20.48-6.91,23.81-18.56l11.65,3.84c-5.38,15.87-17.92,25.6-35.46,25.6-23.81,0-41.35-19.33-41.35-47.36s17.54-47.36,41.35-47.36c17.54,0,30.08,9.73,35.46,25.6l-11.65,3.84c-3.33-11.65-11.9-18.56-23.81-18.56-17.02,0-29.06,14.72-29.06,36.48s12.03,36.48,29.06,36.48Z" fill="#38373e"/><path d="M754.05,331.53c-18.3,0-31.11-14.08-31.11-34.82s12.8-34.82,31.11-34.82,31.11,14.08,31.11,34.82-12.8,34.82-31.11,34.82ZM754.05,321.67c11.78,0,19.46-9.73,19.46-24.96s-7.68-25.09-19.46-25.09-19.46,9.73-19.46,25.09,7.68,24.96,19.46,24.96Z" fill="#38373e"/><path d="M793.34,263.17h11.52v9.09c3.84-5.5,10.5-10.37,19.97-10.37,14.21,0,22.27,9.86,22.27,24.06v44.16h-11.52v-41.09c0-9.34-3.97-16.38-13.95-16.38-8.32,0-16.77,6.4-16.77,17.54v39.94h-11.52v-66.95Z" fill="#38373e"/><path d="M854.53,296.71c0-19.07,10.62-34.82,29.19-34.82,9.34,0,16.77,4.48,20.74,11.01v-34.69h11.52v91.91h-11.52v-9.73c-3.97,6.66-11.39,11.14-20.74,11.14-18.56,0-29.19-15.87-29.19-34.82ZM885.76,272.01c-12.54,0-19.58,10.24-19.58,24.71s7.04,24.71,19.58,24.71c9.47,0,18.95-6.91,18.95-22.27v-4.74c0-15.62-9.47-22.4-18.95-22.4Z" fill="#38373e"/><path d="M928.12,238.21h12.54v13.31h-12.54v-13.31ZM940.16,330.12h-11.52v-66.95h11.52v66.95Z" fill="#38373e"/><path d="M954.75,273.03h-10.37v-9.86h10.37v-19.58h11.39v19.58h15.23v9.86h-15.23v39.3c0,7.04,3.46,8.32,9.34,8.32,2.69,0,4.61-.13,7.3-.77v9.86c-2.94.64-6.27,1.02-10.11,1.02-11.39,0-17.92-3.84-17.92-16.64v-41.09Z" fill="#38373e"/><path d="M989.56,238.21h12.54v13.31h-12.54v-13.31ZM1001.6,330.12h-11.52v-66.95h11.52v66.95Z" fill="#38373e"/><path d="M1040.89,331.53c-18.3,0-31.11-14.08-31.11-34.82s12.8-34.82,31.11-34.82,31.11,14.08,31.11,34.82-12.8,34.82-31.11,34.82ZM1040.89,321.67c11.78,0,19.46-9.73,19.46-24.96s-7.68-25.09-19.46-25.09-19.46,9.73-19.46,25.09,7.68,24.96,19.46,24.96Z" fill="#38373e"/><path d="M1080.19,263.17h11.52v9.09c3.84-5.5,10.5-10.37,19.97-10.37,14.21,0,22.27,9.86,22.27,24.06v44.16h-11.52v-41.09c0-9.34-3.97-16.38-13.95-16.38-8.32,0-16.77,6.4-16.77,17.54v39.94h-11.52v-66.95Z" fill="#38373e"/><path d="M1147.51,309.39c3.58,7.81,11.78,12.54,20.48,12.54,7.81,0,14.72-3.33,14.72-10.62s-6.4-8.32-17.41-10.62c-11.01-2.43-22.53-4.86-22.53-18.56,0-11.9,10.37-20.22,24.58-20.22,12.03,0,21.89,5.89,25.86,13.82l-8.19,6.53c-3.46-6.66-9.73-10.88-18.18-10.88-7.68,0-12.8,3.84-12.8,9.86s5.89,7.42,15.23,9.47c11.52,2.69,24.71,4.99,24.71,19.58,0,12.8-11.65,21.25-25.99,21.25-12.16,0-24.32-5.25-29.44-15.62l8.96-6.53Z" fill="#38373e"/><path d="M662.4,446.12h-12.29v-91.91h12.29v91.91Z" fill="#38373e"/><path d="M675.71,379.17h11.52v9.09c3.84-5.5,10.5-10.37,19.97-10.37,14.21,0,22.27,9.86,22.27,24.06v44.16h-11.52v-41.09c0-9.34-3.97-16.38-13.95-16.38-8.32,0-16.77,6.4-16.77,17.54v39.94h-11.52v-66.95Z" fill="#38373e"/><path d="M770.69,363.3c-1.92-.26-3.07-.26-4.99-.26-6.78,0-10.5,2.94-10.5,11.52v4.61h14.85v9.86h-14.85v57.09h-11.52v-57.09h-10.11v-9.86h10.11v-5.38c0-13.06,7.17-20.99,20.87-20.99,2.3,0,3.58.13,6.14.26v10.24Z" fill="#38373e"/><path d="M809.09,390.57c-1.92-.38-3.46-.51-5.63-.51-9.73,0-17.54,7.68-17.54,19.46v36.61h-11.52v-66.95h11.52v11.39c2.94-6.78,9.47-11.9,18.56-11.9,1.79,0,3.46.13,4.61.26v11.65Z" fill="#38373e"/><path d="M808.7,428.07c0-13.31,10.37-18.82,25.35-21.89l16.26-3.33v-2.82c0-7.68-4.22-12.03-13.18-12.03-8.45,0-13.44,3.97-15.49,11.39l-10.88-2.82c3.2-10.88,13.06-18.69,26.75-18.69,14.98,0,24.19,7.3,24.19,21.63v32.64c0,4.35,2.69,5.76,7.17,4.74v9.22c-10.24,1.28-16.13-1.15-17.54-7.55-4.1,5.25-11.52,8.7-20.61,8.7-12.16,0-22.02-7.17-22.02-19.2ZM850.31,411.82l-13.06,2.82c-10.24,2.05-17.15,4.86-17.15,12.93,0,6.53,4.74,10.37,12.03,10.37,9.86,0,18.18-6.02,18.18-14.59v-11.52Z" fill="#38373e"/><path d="M876.41,425.39c3.58,7.81,11.78,12.54,20.48,12.54,7.81,0,14.72-3.33,14.72-10.62s-6.4-8.32-17.41-10.62c-11.01-2.43-22.53-4.86-22.53-18.56,0-11.9,10.37-20.22,24.58-20.22,12.03,0,21.89,5.89,25.86,13.82l-8.19,6.53c-3.46-6.66-9.73-10.88-18.18-10.88-7.68,0-12.8,3.84-12.8,9.86s5.89,7.42,15.23,9.47c11.52,2.69,24.71,4.99,24.71,19.58,0,12.8-11.65,21.25-25.98,21.25-12.16,0-24.32-5.25-29.44-15.62l8.96-6.53Z" fill="#38373e"/><path d="M932.48,389.03h-10.37v-9.86h10.37v-19.58h11.39v19.58h15.23v9.86h-15.23v39.3c0,7.04,3.46,8.32,9.34,8.32,2.69,0,4.61-.13,7.3-.77v9.86c-2.94.64-6.27,1.02-10.11,1.02-11.39,0-17.92-3.84-17.92-16.64v-41.09Z" fill="#38373e"/><path d="M1002.49,390.57c-1.92-.38-3.46-.51-5.63-.51-9.73,0-17.54,7.68-17.54,19.46v36.61h-11.52v-66.95h11.52v11.39c2.94-6.78,9.47-11.9,18.56-11.9,1.79,0,3.46.13,4.61.26v11.65Z" fill="#38373e"/><path d="M1061.89,446.12h-11.52v-9.22c-3.84,5.63-10.37,10.62-19.84,10.62-14.34,0-22.4-9.86-22.4-24.07v-44.29h11.52v41.86c0,9.47,4.1,15.87,13.95,15.87,8.32,0,16.77-6.27,16.77-17.41v-40.32h11.52v66.95Z" fill="#38373e"/><path d="M1101.56,437.42c9.22,0,14.72-5.89,16.64-14.21l10.24,4.74c-3.2,11.14-12.93,19.58-26.88,19.58-18.69,0-31.62-14.21-31.62-34.82s12.93-34.82,31.62-34.82c13.95,0,23.42,8.06,26.62,19.2l-9.98,4.99c-1.92-8.19-7.42-14.21-16.64-14.21-11.9,0-20.1,9.47-20.1,24.83s8.19,24.71,20.1,24.71Z" fill="#38373e"/><path d="M1136.51,389.03h-10.37v-9.86h10.37v-19.58h11.39v19.58h15.23v9.86h-15.23v39.3c0,7.04,3.46,8.32,9.34,8.32,2.69,0,4.61-.13,7.3-.77v9.86c-2.94.64-6.27,1.02-10.11,1.02-11.39,0-17.92-3.84-17.92-16.64v-41.09Z" fill="#38373e"/><path d="M1224.32,446.12h-11.52v-9.22c-3.84,5.63-10.37,10.62-19.84,10.62-14.34,0-22.4-9.86-22.4-24.07v-44.29h11.52v41.86c0,9.47,4.1,15.87,13.95,15.87,8.32,0,16.77-6.27,16.77-17.41v-40.32h11.52v66.95Z" fill="#38373e"/><path d="M1271.68,390.57c-1.92-.38-3.46-.51-5.63-.51-9.73,0-17.54,7.68-17.54,19.46v36.61h-11.52v-66.95h11.52v11.39c2.94-6.78,9.47-11.9,18.56-11.9,1.79,0,3.46.13,4.61.26v11.65Z" fill="#38373e"/><path d="M1270.65,412.71c0-19.97,12.67-34.82,30.85-34.82s28.54,14.21,28.54,32.77v3.84h-48.39c.64,14.08,8.7,23.04,20.35,23.04,8.96,0,15.36-4.86,17.41-12.8l10.11,3.58c-4.1,11.91-14.21,19.2-27.52,19.2-18.56,0-31.36-14.21-31.36-34.82ZM1282.3,405.67h36.1c-.26-9.47-5.38-17.92-17.02-17.92-9.73,0-17.03,6.53-19.07,17.92Z" fill="#38373e"/></g></svg>